<svg width="118" height="88" viewBox="0 0 118 88" fill="none" xmlns="http://www.w3.org/2000/svg">
<g id="Group 1171281451">
<path id="Vector 6205" d="M36.7778 29.6663C30.1271 20.6841 41.9261 11.9128 52.2808 7.10929C54.3633 6.14325 58.3346 4.47984 57.4333 2.36855C56.5941 0.40273 54.3692 0.96836 52.2362 1.10669C46.5101 1.47807 40.1531 2.81891 33.9045 5.12922C29.2348 6.85576 25.2072 9.88711 21.4591 13.1641C15.585 18.2999 11.4584 21.4614 8.05383 27.0685C-8.92677 55.0344 4.07579 76.1284 18.2855 84.2086C23.673 87.2722 30.2422 87.1431 36.0846 85.0748C56.4235 77.8747 58.1521 62.9301 54.4382 50.5341C51.7682 41.6226 42.3137 37.1428 36.7778 29.6663Z" fill="#0E2847" fill-opacity="0.04"/>
<path id="Vector 6206" d="M96.6924 29.6663C90.0417 20.6841 101.841 11.9128 112.195 7.10929C114.278 6.14325 118.249 4.47984 117.348 2.36855C116.509 0.40273 114.284 0.96836 112.151 1.10669C106.425 1.47807 100.068 2.81891 93.819 5.12922C89.1494 6.85576 85.1217 9.88711 81.3736 13.1641C75.4995 18.2999 71.3729 21.4614 67.9684 27.0685C50.9878 55.0344 63.9903 76.1284 78.2 84.2086C83.5875 87.2722 90.1568 87.1431 95.9991 85.0748C116.338 77.8747 118.067 62.9301 114.353 50.5341C111.683 41.6226 102.228 37.1428 96.6924 29.6663Z" fill="#0E2847" fill-opacity="0.04"/>
</g>
</svg>
