<svg width="32" height="32" viewBox="0 0 32 32" fill="none" xmlns="http://www.w3.org/2000/svg">
<g id="Veg" clip-path="url(#clip0_134_164)">
<path id="Vector" d="M2.66663 12C2.66663 15.5362 4.07138 18.9276 6.57187 21.4281C9.07235 23.9286 12.4637 25.3333 16 25.3333C19.5362 25.3333 22.9276 23.9286 25.428 21.4281C27.9285 18.9276 29.3333 15.5362 29.3333 12" stroke="#0E2847" stroke-width="1.5" stroke-linecap="round" stroke-linejoin="round"/>
<path id="Vector_2" d="M16 25.3333C16 21.7971 17.4048 18.4057 19.9052 15.9052C22.4057 13.4048 25.7971 12 29.3333 12" stroke="#0E2847" stroke-width="1.5" stroke-linecap="round" stroke-linejoin="round"/>
<path id="Vector_3" d="M2.66663 12C4.41758 12 6.1514 12.3449 7.76907 13.0149C9.38675 13.685 10.8566 14.6671 12.0947 15.9052C13.3328 17.1434 14.315 18.6132 14.985 20.2309C15.6551 21.8486 16 23.5824 16 25.3333" stroke="#0E2847" stroke-width="1.5" stroke-linecap="round" stroke-linejoin="round"/>
<path id="Vector_4" d="M16 5.3335C17.3437 6.61624 18.3953 8.17339 19.0832 9.89899C19.7712 11.6246 20.0793 13.4781 19.9867 15.3335" stroke="#0E2847" stroke-width="1.5" stroke-linecap="round" stroke-linejoin="round"/>
<path id="Vector_5" d="M12.0133 15.3335C11.9206 13.4781 12.2288 11.6246 12.9167 9.89899C13.6047 8.17339 14.6563 6.61624 16 5.3335" stroke="#0E2847" stroke-width="1.5" stroke-linecap="round" stroke-linejoin="round"/>
</g>
<defs>
<clipPath id="clip0_134_164">
<rect width="32" height="32" fill="white"/>
</clipPath>
</defs>
</svg>
